<?xml version="1.0" encoding="UTF-8" standalone="no" ?>
<!DOCTYPE svg PUBLIC "-//W3C//DTD SVG 1.1//EN" "http://www.w3.org/Graphics/SVG/1.1/DTD/svg11.dtd">
<svg xmlns="http://www.w3.org/2000/svg" xmlns:xlink="http://www.w3.org/1999/xlink" version="1.1" width="1080" height="1080" viewBox="0 0 1080 1080" xml:space="preserve">
<desc>Created with Fabric.js 5.2.4</desc>
<defs>
</defs>
<g transform="matrix(1 0 0 1 540 540)" id="b6ef4cc5-07e4-42aa-9494-19800ad90241"  >
</g>
<g transform="matrix(1 0 0 1 540 540)" id="ee688639-20c5-4fce-b3ba-492667a02dcc"  >
<rect style="stroke: none; stroke-width: 1; stroke-dasharray: none; stroke-linecap: butt; stroke-dashoffset: 0; stroke-linejoin: miter; stroke-miterlimit: 4; fill: rgb(255,255,255); fill-rule: nonzero; opacity: 1; visibility: hidden;" vector-effect="non-scaling-stroke"  x="-540" y="-540" rx="0" ry="0" width="1080" height="1080" />
</g>
<g transform="matrix(28.42 0 0 28.42 540 540)"  >
<g style=""   >
		<g transform="matrix(1 0 0 1 0 0)"  >
<rect style="stroke: rgb(255,255,255); stroke-opacity: 0.75; stroke-width: 1; stroke-dasharray: none; stroke-linecap: butt; stroke-dashoffset: 0; stroke-linejoin: miter; stroke-miterlimit: 4; fill: none; fill-rule: nonzero; opacity: 1;" vector-effect="non-scaling-stroke"  x="-18.5" y="-18.5" rx="18.5" ry="18.5" width="37" height="37" />
</g>
		<g transform="matrix(1 0 0 1 0 0)"  >
<path style="stroke: none; stroke-width: 1; stroke-dasharray: none; stroke-linecap: butt; stroke-dashoffset: 0; stroke-linejoin: miter; stroke-miterlimit: 4; fill: rgb(255,255,255); fill-opacity: 0.75; fill-rule: nonzero; opacity: 1;" vector-effect="non-scaling-stroke"  transform=" translate(-19, -19)" d="M 23.005 14.095 C 22.827 14.095 22.653 14.1478 22.505 14.2467 C 22.357 14.3456 22.2416 14.4861 22.1735 14.6506 C 22.1054 14.815 22.0876 14.996 22.1223 15.1706 C 22.157 15.3452 22.2427 15.5055 22.3686 15.6314 C 22.4945 15.7573 22.6548 15.843 22.8294 15.8777 C 23.004 15.9124 23.185 15.8946 23.3494 15.8265 C 23.5139 15.7584 23.6544 15.643 23.7533 15.495 C 23.8522 15.347 23.905 15.173 23.905 14.995 C 23.905 14.7563 23.8102 14.5274 23.6414 14.3586 C 23.4726 14.1898 23.2437 14.095 23.005 14.095 Z M 26.455 15.91 C 26.4404 15.2877 26.3239 14.6721 26.11 14.0875 C 25.9193 13.5873 25.6225 13.1345 25.24 12.76 C 24.8686 12.3756 24.4147 12.0806 23.9125 11.8975 C 23.3295 11.6771 22.7131 11.5579 22.09 11.545 C 21.295 11.5 21.04 11.5 19 11.5 C 16.96 11.5 16.705 11.5 15.91 11.545 C 15.2869 11.5579 14.6705 11.6771 14.0875 11.8975 C 13.5863 12.0825 13.1327 12.3772 12.76 12.76 C 12.3756 13.1314 12.0806 13.5853 11.8975 14.0875 C 11.6771 14.6705 11.5579 15.2869 11.545 15.91 C 11.5 16.705 11.5 16.96 11.5 19 C 11.5 21.04 11.5 21.295 11.545 22.09 C 11.5579 22.7131 11.6771 23.3295 11.8975 23.9125 C 12.0806 24.4147 12.3756 24.8686 12.76 25.24 C 13.1327 25.6228 13.5863 25.9175 14.0875 26.1025 C 14.6705 26.3229 15.2869 26.4421 15.91 26.455 C 16.705 26.5 16.96 26.5 19 26.5 C 21.04 26.5 21.295 26.5 22.09 26.455 C 22.7131 26.4421 23.3295 26.3229 23.9125 26.1025 C 24.4147 25.9194 24.8686 25.6244 25.24 25.24 C 25.6242 24.8669 25.9213 24.4136 26.11 23.9125 C 26.3239 23.3279 26.4404 22.7123 26.455 22.09 C 26.455 21.295 26.5 21.04 26.5 19 C 26.5 16.96 26.5 16.705 26.455 15.91 Z M 25.105 22 C 25.0995 22.4761 25.0133 22.9478 24.85 23.395 C 24.7302 23.7214 24.5379 24.0163 24.2875 24.2575 C 24.0442 24.5054 23.7499 24.6973 23.425 24.82 C 22.9778 24.9833 22.5061 25.0695 22.03 25.075 C 21.28 25.1125 21.0025 25.12 19.03 25.12 C 17.0575 25.12 16.78 25.12 16.03 25.075 C 15.5357 25.0843 15.0434 25.0081 14.575 24.85 C 14.2643 24.7211 13.9835 24.5296 13.75 24.2875 C 13.5011 24.0466 13.3111 23.7514 13.195 23.425 C 13.0119 22.9714 12.9103 22.489 12.895 22 C 12.895 21.25 12.85 20.9725 12.85 19 C 12.85 17.0275 12.85 16.75 12.895 16 C 12.8984 15.5133 12.9872 15.031 13.1575 14.575 C 13.2895 14.2584 13.4922 13.9762 13.75 13.75 C 13.9779 13.4921 14.2595 13.2873 14.575 13.15 C 15.0322 12.985 15.514 12.8988 16 12.895 C 16.75 12.895 17.0275 12.85 19 12.85 C 20.9725 12.85 21.25 12.85 22 12.895 C 22.4761 12.9005 22.9478 12.9867 23.395 13.15 C 23.7358 13.2765 24.0417 13.4821 24.2875 13.75 C 24.5333 13.9804 24.7253 14.262 24.85 14.575 C 25.0167 15.0317 25.103 15.5138 25.105 16 C 25.1425 16.75 25.15 17.0275 25.15 19 C 25.15 20.9725 25.1425 21.25 25.105 22 Z M 19 15.1525 C 18.2394 15.154 17.4962 15.3809 16.8645 15.8046 C 16.2328 16.2282 15.7408 16.8296 15.4507 17.5328 C 15.1607 18.236 15.0855 19.0093 15.2348 19.7552 C 15.3841 20.501 15.7512 21.1859 16.2896 21.7232 C 16.8279 22.2606 17.5135 22.6263 18.2596 22.7741 C 19.0058 22.922 19.779 22.8453 20.4816 22.5539 C 21.1842 22.2625 21.7847 21.7693 22.2071 21.1368 C 22.6295 20.5042 22.855 19.7606 22.855 19 C 22.856 18.4938 22.7569 17.9925 22.5634 17.5247 C 22.37 17.057 22.0859 16.6321 21.7277 16.2745 C 21.3694 15.917 20.944 15.6338 20.4758 15.4412 C 20.0077 15.2486 19.5062 15.1505 19 15.1525 Z M 19 21.4975 C 18.506 21.4975 18.0232 21.351 17.6125 21.0766 C 17.2018 20.8022 16.8816 20.4121 16.6926 19.9558 C 16.5036 19.4994 16.4541 18.9972 16.5505 18.5128 C 16.6469 18.0283 16.8847 17.5833 17.234 17.234 C 17.5833 16.8847 18.0283 16.6469 18.5128 16.5505 C 18.9972 16.4541 19.4994 16.5036 19.9558 16.6926 C 20.4121 16.8816 20.8022 17.2018 21.0766 17.6125 C 21.351 18.0232 21.4975 18.506 21.4975 19 C 21.4975 19.328 21.4329 19.6527 21.3074 19.9558 C 21.1819 20.2588 20.9979 20.5341 20.766 20.766 C 20.5341 20.9979 20.2588 21.1819 19.9558 21.3074 C 19.6527 21.4329 19.328 21.4975 19 21.4975 Z" stroke-linecap="round" />
</g>
</g>
</g>
</svg>