<?xml version="1.0" encoding="utf-8"?>
<!-- Uploaded to: SVG Repo, www.svgrepo.com, Generator: SVG Repo Mixer Tools -->
<!DOCTYPE svg PUBLIC "-//W3C//DTD SVG 1.1//EN" "http://www.w3.org/Graphics/SVG/1.1/DTD/svg11.dtd">
<svg fill="#000000" version="1.1" id="Layer_1" xmlns="http://www.w3.org/2000/svg" xmlns:xlink="http://www.w3.org/1999/xlink" 
	 width="800px" height="800px" viewBox="0 0 512 512" enable-background="new 0 0 512 512" xml:space="preserve">
<g>
	<path d="M343.755,364.892v41.519c0,10.428-8.443,18.87-18.857,18.87H110.419c-10.415,0-18.853-8.442-18.853-18.87V72.817
		c0-10.428,8.438-18.871,18.853-18.871h214.479c10.415,0,18.857,8.443,18.857,18.871v48.053l39.484-71.424
		c-5.383-22.617-25.601-39.484-49.881-39.484h-231.4c-28.384,0-51.402,23.005-51.402,51.389v389.303
		c0,28.385,23.018,51.385,51.402,51.385h231.4c28.384,0,51.402-23,51.402-51.385V317.958l-10.463,18.934
		C367.349,349.464,356.52,359.138,343.755,364.892z M265.026,479.483h-94.731c-9.067,0-16.404-7.337-16.404-16.404
		c0-9.063,7.337-16.399,16.404-16.399h94.731c9.063,0,16.4,7.337,16.4,16.399C281.426,472.146,274.089,479.483,265.026,479.483z"/>
	<path d="M444.49,74.227c-15.855-8.76-35.801-3.011-44.561,12.831l-96.363,174.388l-49.689-25.516
		c-16.101-8.265-35.881-1.904-44.177,14.192c-8.269,16.131-1.909,35.895,14.205,44.176l77.993,40.047
		c4.772,2.449,9.901,3.621,14.959,3.621c11.569,0,22.764-6.137,28.741-16.934l111.742-202.228
		C466.116,102.949,460.35,82.99,444.49,74.227z"/>
</g>
</svg>